<?xml version="1.0" encoding="iso-8859-1"?>
<svg fill="#000000" height="800px" width="800px" version="1.1" id="Layer_1" xmlns="http://www.w3.org/2000/svg" xmlns:xlink="http://www.w3.org/1999/xlink"
	 viewBox="0 0 512 512" xml:space="preserve">
<g>
	<g>
		<g>
			<path d="M277.556,130.381c3.724-5.101,2.607-12.255-2.493-15.98c-1.917-1.4-3.86-2.782-5.772-4.109
				c-5.191-3.599-12.316-2.311-15.916,2.878c-3.6,5.19-2.311,12.316,2.879,15.916c1.762,1.223,3.553,2.498,5.322,3.789
				c2.035,1.486,4.394,2.2,6.734,2.2C271.836,135.075,275.317,133.448,277.556,130.381z"/>
			<path d="M419.648,85.772c23.648,0,42.886-19.238,42.886-42.886C462.534,19.238,443.296,0,419.648,0
				C396,0,376.761,19.238,376.761,42.886c0,7.737,2.07,14.994,5.668,21.267l-36.554,36.555
				c-34.588-32.735-72.765-57.53-108.47-70.303c-41.39-14.805-75.255-11.888-95.356,8.215l-28.947,28.945
				c-26.639,26.64-41.532,72.566-39.838,122.852c1.455,43.203,14.666,83.366,37.744,116L73.51,397.637H60.902
				c-6.316,0-11.436,5.12-11.436,11.436c0,6.316,5.12,11.436,11.436,11.436h19.386l-14.616,77.947
				c-0.627,3.344,0.268,6.793,2.439,9.411c2.173,2.619,5.399,4.133,8.8,4.133h125.8c3.402,0,6.627-1.514,8.8-4.133
				c2.172-2.618,3.067-6.067,2.439-9.411l-14.616-77.947h19.386c6.316,0,11.436-5.12,11.436-11.436
				c0-6.316-5.12-11.436-11.436-11.436h-12.604l-9.908-24.103c23.475,9.576,49.211,15.054,76.131,15.961
				c2.587,0.087,5.161,0.13,7.723,0.13c47.237,0,89.861-14.7,115.13-39.97l28.945-28.946c20.102-20.103,23.019-53.967,8.214-95.355
				c-12.772-35.705-37.567-73.882-70.303-108.47l36.616-36.616C404.872,83.765,412.029,85.772,419.648,85.772z M419.648,22.873
				c11.035,0,20.014,8.979,20.014,20.014S430.682,62.9,419.648,62.9c-11.035,0-20.014-8.979-20.014-20.014
				S408.613,22.873,419.648,22.873z M127.446,326.587c0.312,0.335,0.618,0.675,0.931,1.005v70.043H98.24L127.446,326.587z
				 M90.694,489.127l12.866-68.618h72.507l12.866,68.618H90.694z M151.249,397.637v-49.619c4.398,3.333,8.938,6.487,13.621,9.441
				l16.518,40.178H151.249z M279.04,366.611c-44.88-0.002-94.28-14.894-131.14-51.754c-68.489-68.49-61.127-180.233-23.334-225.911
				c0.364,13.59,3.433,28.722,9.267,45.031c13.791,38.551,41.589,79.987,78.274,116.672c36.685,36.685,78.122,64.484,116.672,78.274
				c16.301,5.831,31.433,8.912,45.018,9.278C352.704,355.649,317.543,366.612,279.04,366.611z M410.815,233.056
				c11.491,32.122,10.452,58.177-2.852,71.479c-13.303,13.302-39.357,14.342-71.478,2.851
				c-35.432-12.675-73.859-38.569-108.203-72.911c-34.343-34.342-60.237-72.769-72.911-108.203
				c-11.491-32.122-10.452-58.177,2.852-71.479c7.173-7.173,18.052-10.781,31.593-10.781c11.57,0,25.084,2.635,39.885,7.93
				c32.636,11.674,67.808,34.57,99.995,64.946l-54.69,54.69c-4.466,4.466-4.466,11.707,0,16.174c2.234,2.234,5.16,3.35,8.087,3.35
				s5.854-1.116,8.087-3.35l15.04-15.04c20.456,21.917,36.995,45.61,47.08,67.621c7.711,16.83,9.14,27.365,9.396,31.114
				c0.412,6.036,5.437,10.657,11.397,10.657c0.262,0,0.526-0.009,0.791-0.027c6.301-0.43,11.06-5.887,10.63-12.189
				c-0.518-7.589-2.921-20.529-11.421-39.081c-11.168-24.373-29.344-50.419-51.696-74.271l23.471-23.471
				C376.246,165.247,399.141,200.421,410.815,233.056z"/>
		</g>
	</g>
</g>
</svg>
